<?xml version="1.0" encoding="UTF-8" standalone="no"?>
<svg
   width="24"
   height="24"
   fill-rule="evenodd"
   clip-rule="evenodd"
   version="1.1"
   id="svg1"
   xmlns="http://www.w3.org/2000/svg"
   xmlns:svg="http://www.w3.org/2000/svg">
  <defs
     id="defs1" />
  <path
     d="M 3,24 H 22 V 1 H 21 V 23 H 3 Z M 20,0 H 2 V 22 H 20 Z M 19,1 H 3 V 21 H 19 Z M 17,17 H 5 v 1 h 12 z m 0,-3 H 5 v 1 h 12 z m 0,-3 H 5 v 1 H 17 Z M 9.652,7.137 10.6,7.437 C 10.455,7.966 10.213,8.359 9.875,8.615 9.537,8.872 9.108,9 8.588,9 7.945,9 7.417,8.78 7.003,8.341 6.589,7.902 6.382,7.301 6.382,6.539 6.382,5.733 6.59,5.107 7.006,4.661 7.422,4.215 7.969,3.992 8.648,3.992 c 0.592,0 1.073,0.175 1.443,0.525 0.221,0.207 0.386,0.505 0.496,0.892 L 9.619,5.64 C 9.562,5.389 9.442,5.191 9.261,5.046 9.079,4.9 8.858,4.828 8.598,4.828 8.239,4.828 7.948,4.957 7.724,5.214 7.501,5.472 7.389,5.889 7.389,6.466 c 0,0.613 0.11,1.049 0.331,1.308 0.22,0.26 0.506,0.39 0.858,0.39 0.26,0 0.484,-0.082 0.671,-0.248 C 9.436,7.751 9.571,7.491 9.652,7.137 Z m 3.023,1.78 -1.731,-4.842 h 1.06 l 1.226,3.584 1.186,-3.584 h 1.037 l -1.734,4.842 z"
     id="path1"
     style="fill:#5b69e4;fill-opacity:1" />
</svg>
