<?xml version="1.0" encoding="UTF-8" standalone="no"?>
<svg
   version="1.1"
   width="512"
   height="512"
   id="svg1"
   xmlns="http://www.w3.org/2000/svg"
   xmlns:svg="http://www.w3.org/2000/svg">
  <defs
     id="defs1" />
  <path
     d="M 128,202.66667 C 145.06241,134.2265 187.73759,100 256,100 c 102.39999,0 115.20001,77 166.39999,89.83333 34.13761,8.55983 64,-4.2735 89.60001,-38.5 C 494.93759,219.7735 452.26239,254 384,254 281.60001,254 268.79999,177 217.60001,164.16667 c -34.13761,-8.55983 -64,4.2735 -89.60001,38.5 z M 0,356.66666 C 17.062399,288.2265 59.737598,254 128,254 c 102.39999,0 115.2,77 166.39999,89.83334 34.13761,8.55982 64,-4.2735 89.60001,-38.5 C 366.93759,373.7735 324.26239,408 256,408 153.60001,408 140.8,331 89.600006,318.16666 55.462402,309.60684 25.6,322.44015 0,356.66666 Z"
     id="path1"
     style="fill:#5b69e4;fill-opacity:1" />
</svg>
