<?xml version="1.0" encoding="UTF-8" standalone="no"?>
<!-- License: MIT. Made by vscode-icons: https://github.com/vscode-icons/vscode-icons -->

<svg
   width="498.15002"
   height="528"
   viewBox="0 0 19.926001 21.12"
   version="1.1"
   id="svg3"
   xmlns="http://www.w3.org/2000/svg"
   xmlns:svg="http://www.w3.org/2000/svg">
  <defs
     id="defs3" />
  <title
     id="title1">file_type_sql</title>
  <path
     d="m 2.5250003,13.255998 a 21.159,21.159 0 0 0 7.438,1.193 21.159,21.159 0 0 0 7.4379997,-1.194 c 1.864,-0.727 2.525,-1.535 2.525,-2 v -3.555 a 10.357,10.357 0 0 1 -2.084,1.076 22.293,22.293 0 0 1 -7.8789997,1.302 22.36,22.36 0 0 1 -7.879,-1.3 A 10.28,10.28 0 0 1 2.9754639e-7,7.699998 v 3.55 c 0,0.474 0.66300000245361,1.278 2.52500000245361,2.006 z"
     style="fill:#5b69e4;fill-opacity:1"
     id="path1" />
  <path
     d="m 9.9630003,21.119998 c 5.4999997,0 9.9629997,-1.744 9.9629997,-3.894 v -2.837 a 10.5,10.5 0 0 1 -1.535,0.762 l -0.157,0.063 a 23.487,23.487 0 0 1 -8.2709997,1.351 23.422,23.422 0 0 1 -8.271,-1.351 c -0.054,-0.02 -0.106,-0.043 -0.157,-0.063 A 10.5,10.5 0 0 1 2.9754639e-7,14.388998 v 2.837 c 0,2.15 4.46300000245361,3.894 9.96300000245361,3.894 z"
     style="fill:#5b69e4;fill-opacity:1"
     id="path3" />
  <ellipse
     cx="9.9630003"
     cy="3.8940001"
     rx="9.9630003"
     ry="3.8940001"
     style="fill:#5b69e4;fill-opacity:1"
     id="ellipse3" />
</svg>
