<?xml version="1.0" encoding="UTF-8" standalone="no"?>
<svg
   viewBox="0 0 128 127.99999"
   version="1.1"
   id="svg1"
   width="128"
   height="128"
   xmlns="http://www.w3.org/2000/svg"
   xmlns:svg="http://www.w3.org/2000/svg">
  <defs
     id="defs1" />
  <path
     d="M 122.73609,4.0011503e-4 H 61.093431 C 61.093431,15.36135 73.545811,27.81373 88.906761,27.81373 h 11.354599 v 10.970754 c 0.012,15.325473 12.41757,27.749578 27.73464,27.79199 H 128 V 5.3604745 5.3382014 C 128,2.4160279 125.65226,0.04201208 122.74009,0 h -0.004 z M 92.234918,30.704161 H 30.591862 c 0.0027,15.358682 12.454514,27.807995 27.813329,27.807995 h 11.354732 v 10.976089 c 0.012,15.355081 12.457981,27.798658 27.812529,27.807994 v 0 -61.25321 c 0,-2.948581 -2.39002,-5.338868 -5.338601,-5.338868 z M 61.712409,61.40312 H 0 c 0.00933602,15.363084 12.46545,27.81333 27.829468,27.81333 h 11.434754 v 10.97089 c 0,15.35708 12.446245,27.80719 27.802126,27.81333 v 0 -61.238142 c 0,-2.960051 -2.399756,-5.359808 -5.359941,-5.359808 z"
     id="path1"
     style="fill:#5b69e4;fill-opacity:1;stroke-width:0.133372" />
</svg>
