<?xml version="1.0" encoding="UTF-8" standalone="no"?>
<svg
   xml:space="preserve"
   width="114.86072"
   height="114.85805"
   version="1.1"
   id="svg1"
   xmlns="http://www.w3.org/2000/svg"
   xmlns:svg="http://www.w3.org/2000/svg"><defs
   id="defs1" />
  <path
   fill="#100f0d"
   d="M 112.6935,52.313437 62.544498,2.1665625 c -2.886625,-2.88875 -7.57075,-2.88875 -10.461375,0 l -10.412625,10.4144995 13.2095,13.2095 c 3.069875,-1.036625 6.590375,-0.340875 9.036625,2.105875 2.461,2.462 3.150875,6.01275 2.087375,9.09375 l 12.732,12.7305 c 3.081,-1.062 6.63325,-0.3755 9.09425,2.088875 3.4375,3.4365 3.4375,9.007375 0,12.44675 -3.44,3.4395 -9.00975,3.4395 -12.45125,0 -2.585375,-2.587875 -3.225125,-6.387125 -1.914,-9.57275 l -11.875,-11.874 v 31.246125 c 0.837375,0.415 1.628375,0.96775 2.326625,1.664 3.4375,3.437125 3.4375,9.007375 0,12.44975 -3.4375,3.436 -9.01125,3.436 -12.44625,0 -3.4375,-3.442375 -3.4375,-9.012625 0,-12.44975 0.849625,-0.848625 1.8335,-1.490625 2.88325,-1.920375 V 42.264187 c -1.04975,-0.42975 -2.03125,-1.066375 -2.88325,-1.920875 -2.6035,-2.602625 -3.23,-6.424375 -1.894625,-9.622125 L 36.553373,17.696812 2.166135,52.081062 c -2.88818,2.891125 -2.88818,7.57525 0,10.463875 l 50.151363,50.146983 c 2.88725,2.88818 7.569875,2.88818 10.461375,0 L 112.6935,62.777312 c 2.88962,-2.889125 2.88962,-7.575625 0,-10.463875"
   id="path1"
   style="fill:#5b69e4;fill-opacity:1" />
</svg>
