<?xml version="1.0" encoding="UTF-8" standalone="no"?>
<svg
   shape-rendering="geometricPrecision"
   text-rendering="geometricPrecision"
   image-rendering="optimizeQuality"
   fill-rule="evenodd"
   clip-rule="evenodd"
   viewBox="0 0 512.00001 512.00001"
   version="1.1"
   id="svg1"
   width="512"
   height="512"
   xmlns="http://www.w3.org/2000/svg"
   xmlns:svg="http://www.w3.org/2000/svg">
  <defs
     id="defs1" />
  <path
     d="m 212.22591,419.96021 c 53.96,52.06 130.29,67.78 206.61,35.26 l 64.05,25.18 -21.22,-50.47 c 71.17,-57 58.43,-135.34 6.04,-188.75 -3.51,20.53 -10.46,39.99 -20.36,57.98 -14.07,25.58 -34.21,48.33 -58.89,67.05 -23.91,18.15 -51.82,32.38 -82.24,41.58 -28.99,8.77 -60.74,13.15 -93.98,12.17 z m -23.1,-197.7 h -36.3 v 18.12 h 44.46 v 26.87 h -80.75 v -113.42 h 79.85 l -4.54,26.87 h -39.02 v 19.58 h 36.3 z m 97.24,44.99 -32.09,-40.28 c -1.03,-1.29 -1.58,-4.24 -1.82,-8.71 h -0.73 v 48.99 h -36.29 v -113.42 h 34.12 l 32.09,40.29 c 1.03,1.28 1.57,4.24 1.82,8.71 h 0.72 v -49 h 36.3 v 113.42 z m -62.43,-237.759995 0.22,0.01 c 60.08,1.82 113.95,23.17 152.5,56.22 39.2,33.610005 62.71,79.309995 61.24,129.149995 v 0.11 c -1.51,49.92 -27.76,94.22 -68.97,125.49 -40.55,30.77 -95.69,48.92 -155.8,47.15 -16.83,-0.49 -33.1,-2.5 -48.59,-5.83 -14.55,-3.14 -28.52,-7.46 -41.73,-12.81 l -93.949999,36.94 31.39,-74.66 c -18.84,-16.19 -34.06,-35.17 -44.59,-56.04 -11.37,-22.53 -17.31,-47.27 -16.53,-73.09 1.5,-49.91 27.75,-94.21999 68.96,-125.489995 40.549999,-30.77 95.699999,-48.92 155.809999,-47.15 z m -0.46,21.57 -0.22,-0.01 c -55.07,-1.61 -105.36,14.84 -142.149999,42.75 -36.12,27.420005 -59.12,65.899995 -60.42,108.919995 -0.67,22.12 4.45,43.37 14.24,62.78 10.29,20.4 25.74,38.8 45.05,54.1 l 6.43,5.09 -17.83,42.4 54.489999,-21.43 4.07,1.74 c 13.14,5.61 27.17,10.08 41.88,13.25 14.4,3.1 29.37,4.96 44.7,5.41 55.09,1.62 105.4,-14.84 142.19,-42.75 36.13,-27.42 59.13,-65.89 60.43,-108.92 v -0.11 c 1.26,-42.99 -19.35,-82.7 -53.72,-112.15999 -35.01,-30.010005 -84.13,-49.400005 -139.1,-51.060005 z"
     id="path1"
     style="fill:#5b69e4;fill-opacity:1" />
</svg>
