<?xml version="1.0" encoding="UTF-8" standalone="no"?>
<svg
   version="1.0"
   width="380.00745pt"
   height="420.10391pt"
   viewBox="0 0 380.00745 420.10391"
   preserveAspectRatio="xMidYMid"
   id="svg1"
   xmlns="http://www.w3.org/2000/svg"
   xmlns:svg="http://www.w3.org/2000/svg">
  <defs
     id="defs1" />
  <g
     transform="matrix(0.1,0,0,-0.1,0,420)"
     fill="#000000"
     stroke="none"
     id="g1"
     style="fill:#5b69e4;fill-opacity:1">
    <path
       d="M 1786,4178 C 1641,4102 99,3234 72,3214 54,3200 31,3171 20,3150 0,3112 0,3090 0,2103 V 1095 l 23,-39 c 12,-22 38,-52 57,-67 30,-23 1600,-909 1717,-968 64,-32 148,-29 221,8 153,78 1682,943 1713,969 74,62 69,-15 69,1107 0,1112 5,1028 -67,1097 -23,22 -367,221 -898,517 l -860,481 h -75 c -56,-1 -85,-6 -114,-22 z m 424,-721 c 352,-83 649,-287 848,-583 l 40,-61 -298,-170 -299,-171 -27,40 c -52,75 -171,176 -258,218 -114,56 -191,74 -316,74 -126,0 -202,-18 -320,-76 -69,-34 -102,-58 -175,-132 -100,-100 -146,-177 -186,-306 -30,-95 -32,-260 -6,-360 60,-227 238,-420 456,-496 291,-101 613,-1 796,247 l 42,57 301,-166 301,-166 -21,-35 c -43,-73 -134,-188 -203,-256 -263,-262 -610,-405 -985,-405 -527,0 -998,285 -1233,747 -67,132 -98,218 -129,354 -20,88 -23,132 -23,289 0,157 3,201 23,289 124,551 545,968 1087,1074 125,25 130,25 310,22 137,-3 190,-8 275,-28 z"
       id="path1"
       style="fill:#5b69e4;fill-opacity:1" />
  </g>
</svg>
