<?xml version="1.0" encoding="UTF-8" standalone="no"?>
<!-- Uploaded to: SVG Repo, www.svgrepo.com, Generator: SVG Repo Mixer Tools -->

<svg
   fill="#000000"
   height="800"
   width="800"
   version="1.1"
   id="Layer_1"
   viewBox="0 0 455 455"
   xml:space="preserve"
   xmlns="http://www.w3.org/2000/svg"
   xmlns:svg="http://www.w3.org/2000/svg"><defs
   id="defs2" />
<g
   id="g2"
   style="fill:#5b69e4;fill-opacity:1">
	<path
   style="clip-rule:evenodd;fill:#5b69e4;fill-opacity:1;fill-rule:evenodd"
   d="m 246.4,204.35 v -0.665 c -0.136,0.223 -0.324,0.446 -0.442,0.665 z"
   id="path1" />
	<path
   style="clip-rule:evenodd;fill:#5b69e4;fill-opacity:1;fill-rule:evenodd"
   d="M 0,0 V 455 H 455 V 0 Z M 141.522,378.002 H 74.016 V 174.906 h 67.506 z M 107.769,147.186 h -0.446 C 84.678,147.186 70,131.585 70,112.085 70,92.157 85.107,76.998 108.211,76.998 c 23.109,0 37.31,15.159 37.752,35.087 0,19.5 -14.643,35.101 -38.194,35.101 z M 385,378.002 H 317.476 V 269.345 c 0,-27.291 -9.756,-45.92 -34.195,-45.92 -18.664,0 -29.755,12.543 -34.641,24.693 -1.776,4.34 -2.24,10.373 -2.24,16.459 v 113.426 h -67.537 c 0,0 0.905,-184.043 0,-203.096 H 246.4 v 28.779 c 8.973,-13.807 24.986,-33.547 60.856,-33.547 44.437,0 77.744,29.02 77.744,91.398 z"
   id="path2" />
</g>
</svg>
