<?xml version="1.0" encoding="UTF-8" standalone="no"?>
<svg
   class="svg-icon"
   style="overflow:hidden;fill:currentColor"
   viewBox="0 0 128 128"
   version="1.1"
   id="svg1"
   width="128"
   height="128"
   xmlns="http://www.w3.org/2000/svg"
   xmlns:svg="http://www.w3.org/2000/svg">
  <defs
     id="defs1" />
  <path
     d="m 128,40.562821 v 65.554809 a 11.294115,11.294115 0 0 1 -11.29412,11.29412 H 11.294143 A 11.294115,11.294115 0 0 1 2.7291145e-5,106.11763 V 40.562821 L 46.957193,80.374577 a 26.352935,26.352935 0 0 0 34.08564,0 z M 116.70588,12.000003 a 11.433409,11.433409 0 0 1 4.02824,0.737884 11.226351,11.226351 0 0 1 4.72847,3.425881 11.350586,11.350586 0 0 1 1.64894,2.729411 c 0.48941,1.159528 0.79059,2.416941 0.86588,3.738352 L 128,23.294118 v 3.764707 L 71.329894,75.397638 a 11.294115,11.294115 0 0 1 -14.09882,0.447999 L 56.670132,75.393872 2.7291145e-5,27.058825 V 23.294118 A 11.256468,11.256468 0 0 1 6.2004966,13.212239 11.271527,11.271527 0 0 1 11.294143,12.000003 Z"
     id="path1"
     style="fill:#5b69e4;fill-opacity:1;stroke-width:0.176471" />
</svg>
