<?xml version="1.0" encoding="UTF-8" standalone="no"?>
<svg
   height="875.125"
   width="928"
   version="1.1"
   id="svg4"
   xmlns="http://www.w3.org/2000/svg"
   xmlns:svg="http://www.w3.org/2000/svg">
  <defs
     id="defs4" />
  <path
     d="m 369.61523,0 c -42.39203,9.424151 -84.32671,22.54494 -123.64257,42.33398 0.89912,34.71618 3.14362,67.97967 7.69336,101.76758 -15.26846,9.78214 -31.31507,18.17757 -45.57618,29.62891 -14.49005,11.14747 -29.2896,21.81231 -42.41015,34.84961 C 139.46773,191.2428 111.72502,174.95018 83.14453,160.56836 52.33705,193.72356 23.53124,229.50842 0,269.55273 c 18.493057,29.02877 38.32949,58.20569 56.69922,80.95899 v 197.7832 25.1211 22.86132 c 0.44956,0.004 0.89835,0.0209 1.34375,0.0625 l 150.66992,14.52735 c 7.89231,0.76176 14.07749,7.11448 14.62695,15.02343 l 4.64649,66.50977 131.42969,9.37891 9.05468,-61.38672 c 1.17386,-7.95891 8.00029,-13.85742 16.05078,-13.85742 h 158.96094 c 8.04633,0 14.87302,5.89851 16.04688,13.85742 l 9.05468,61.38672 131.4336,-9.37891 4.64258,-66.50977 c 0.55362,-7.90895 6.73464,-14.25751 14.62695,-15.02343 l 150.61133,-14.52735 c 0.4454,-0.0416 0.89028,-0.0583 1.33984,-0.0625 v -19.61132 l 0.0625,-0.0195 v -226.1348 c 21.2165,-26.70928 41.30684,-56.1715 56.69922,-80.95899 -23.52291,-40.04431 -52.34486,-75.82917 -83.15234,-108.98437 -28.57217,14.38182 -56.32515,30.67444 -82.53711,48.01172 -13.11639,-13.0373 -27.88953,-23.70214 -42.40039,-34.84961 -14.25695,-11.45134 -30.32318,-19.84677 -45.5625,-29.62891 4.53724,-33.78791 6.7803,-67.0514 7.68359,-101.76758 C 642.71123,22.54494 600.78198,9.424151 558.36914,0 541.43564,28.45977 525.94975,59.27922 512.46289,89.4082 496.47014,86.73581 480.40294,85.74617 464.31445,85.55469 v -0.0254 c -0.11239,0 -0.21676,0.0254 -0.3125,0.0254 -0.0999,0 -0.20478,-0.0254 -0.30468,-0.0254 v 0.0254 C 447.57964,85.74617 431.52621,86.73581 415.5293,89.4082 402.05076,59.27922 386.57371,28.45977 369.61523,0 Z M 250.41602,359.52344 c 50.15113,0 90.79882,40.61746 90.79882,90.75195 0,50.16779 -40.64769,90.80859 -90.79882,90.80859 -50.12617,0 -90.78711,-40.6408 -90.78711,-90.80859 0,-50.13449 40.66094,-90.75195 90.78711,-90.75195 z m 427.17773,0 c 50.122,0 90.7793,40.61746 90.7793,90.75195 0,50.16779 -40.6573,90.80859 -90.7793,90.80859 -50.15946,0 -90.80664,-40.6408 -90.80664,-90.80859 0,-50.13449 40.64718,-90.75195 90.80664,-90.75195 z m -213.59961,53.10937 c 16.14261,0 29.25391,11.90816 29.25391,26.56055 v 83.58984 c 0,14.66488 -13.1113,26.5625 -29.25391,26.5625 -16.1426,0 -29.22656,-11.89762 -29.22656,-26.5625 v -83.58984 c 0,-14.65239 13.08396,-26.56055 29.22656,-26.56055 z"
     stroke-width="4.16261"
     id="path1"
     style="fill:#5b69e4;fill-opacity:1" />
  <path
     d="m 736.07144,641.84812 -4.66629,66.86402 c -0.56195,8.05882 -6.97237,14.4734 -15.03119,15.052 L 555.8845,735.21548 c -0.39129,0.0291 -0.78257,0.0416 -1.1697,0.0416 -7.97556,0 -14.85635,-5.85263 -16.03437,-13.86149 L 529.47689,658.9814 H 398.52531 l -9.20353,62.41419 c -1.23629,8.40015 -8.74564,14.44009 -17.20407,13.81986 L 211.62824,723.76414 c -8.05881,-0.5786 -14.46923,-6.99318 -15.03119,-15.052 L 191.93077,641.84812 56.450267,628.78585 c 0.06244,14.56081 0.249757,30.51194 0.249757,33.68801 0,143.08559 181.510656,211.86025 407.024266,212.65114 h 0.27473 0.2789 c 225.51361,-0.79089 406.96182,-69.56555 406.96182,-212.65114 0,-3.23435 0.19565,-19.11887 0.26225,-33.68801 z"
     fill="#010102"
     id="path2"
     style="fill:#5b69e4;fill-opacity:1;stroke-width:4.16261" />
  <path
     d="m 319.36686,455.66207 c 0,33.27591 -26.96956,60.24547 -60.27044,60.24547 -33.28424,0 -60.27045,-26.96956 -60.27045,-60.24547 0,-33.27591 26.98621,-60.27044 60.27045,-60.27044 33.30088,0 60.27044,26.99453 60.27044,60.27044"
     id="path3"
     style="fill:#5b69e4;fill-opacity:1;stroke-width:4.16261" />
  <path
     d="m 608.64056,455.66207 c 0,33.27591 26.96123,60.24547 60.23714,60.24547 33.30922,0 60.27045,-26.96956 60.27045,-60.24547 0,-33.27591 -26.96123,-60.27044 -60.27045,-60.27044 -33.27591,0 -60.23714,26.99453 -60.23714,60.27044"
     id="path4"
     style="fill:#5b69e4;fill-opacity:1;stroke-width:4.16261" />
</svg>
