<?xml version="1.0" encoding="UTF-8" standalone="no"?>
<svg
   version="1.0"
   width="699.2713pt"
   height="699.37964pt"
   viewBox="0 0 699.2713 699.37964"
   preserveAspectRatio="xMidYMid"
   id="svg3"
   xmlns="http://www.w3.org/2000/svg"
   xmlns:svg="http://www.w3.org/2000/svg">
  <defs
     id="defs3" />
  <g
     transform="matrix(0.1,0,0,-0.1,-0.30000001,699.65455)"
     fill="#000000"
     stroke="none"
     id="g3"
     style="fill:#5b69e4;fill-opacity:1">
    <path
       d="M 3264,6989 C 2560,6944 1872,6675 1305,6224 1164,6111 889,5836 776,5695 604,5479 466,5259 345,5007 c -456,-948 -456,-2066 0,-3014 182,-379 385,-665 684,-963 301,-301 588,-505 965,-685 951,-457 2061,-456 3015,1 1052,505 1782,1495 1951,2646 60,409 44,866 -45,1263 -119,530 -350,1012 -691,1440 -113,141 -388,416 -529,529 -696,555 -1545,822 -2431,765 z m 266,-2000 c 0,-6 -25,-142 -55,-301 -30,-159 -55,-295 -55,-303 0,-10 53,-14 268,-17 233,-4 277,-8 345,-26 170,-47 270,-129 308,-254 18,-60 21,-87 17,-201 -4,-113 -20,-212 -107,-677 -55,-300 -103,-555 -106,-567 -5,-23 -6,-23 -220,-23 -118,0 -215,4 -215,8 0,4 45,250 100,547 87,468 101,552 98,627 -3,76 -6,90 -28,113 -49,53 -76,59 -315,63 l -221,4 -113,-619 c -62,-340 -119,-645 -125,-678 l -12,-60 -212,-3 c -145,-2 -212,1 -212,8 0,15 429,2342 435,2358 6,16 425,18 425,1 z M 2178,4354 c 218,-43 377,-188 437,-397 51,-178 29,-482 -52,-697 -91,-242 -270,-461 -446,-548 -130,-64 -323,-92 -649,-92 -98,0 -178,-1 -178,-3 0,-2 -25,-137 -55,-302 -30,-164 -55,-302 -55,-306 0,-5 -97,-9 -215,-9 -144,0 -215,3 -215,11 0,5 97,537 215,1180 118,644 215,1172 215,1175 0,2 207,4 460,4 377,0 475,-3 538,-16 z m 3677,-16 c 185,-63 301,-179 362,-362 26,-76 27,-92 27,-261 1,-199 -12,-280 -66,-435 -92,-260 -261,-471 -456,-569 -126,-64 -318,-91 -644,-91 -160,0 -177,-2 -182,-17 -2,-10 -28,-150 -57,-310 l -53,-293 h -213 c -185,0 -213,2 -213,15 0,16 416,2288 427,2333 l 5,23 492,-3 491,-3 z"
       id="path1"
       style="fill:#5b69e4;fill-opacity:1" />
    <path
       d="m 1574,3983 c -32,-4 -32,-5 -48,-96 -10,-51 -50,-270 -90,-487 l -73,-395 76,-3 c 188,-8 460,38 542,92 101,67 181,266 209,517 17,153 -5,248 -69,302 -64,53 -370,92 -547,70 z"
       id="path2"
       style="fill:#5b69e4;fill-opacity:1" />
    <path
       d="m 5183,3984 c -25,-4 -33,-11 -37,-32 -3,-15 -42,-225 -86,-467 -44,-242 -83,-451 -86,-464 l -5,-24 158,6 c 274,11 420,47 497,125 96,96 163,297 173,523 10,229 -28,280 -242,319 -65,12 -320,21 -372,14 z"
       id="path3"
       style="fill:#5b69e4;fill-opacity:1" />
  </g>
</svg>
