<?xml version="1.0" encoding="UTF-8" standalone="no"?>
<svg
   height="31.999588"
   viewBox="0 0 23.603815 31.999588"
   width="23.603815"
   version="1.1"
   id="svg1"
   xmlns="http://www.w3.org/2000/svg"
   xmlns:svg="http://www.w3.org/2000/svg">
  <defs
     id="defs1" />
  <path
     d="m 7.6038165,24.745 c 0,0 -1.224,0.713 0.869,0.952 2.5360005,0.292 3.8330005,0.251 6.6250005,-0.281 0,0 0.733,0.464 1.76,0.865 -6.265,2.683 -14.1770005,-0.161 -9.2550005,-1.536 z m -0.767,-3.5 c 0,0 -1.375,1.015 0.719,1.228 2.7150005,0.281 4.8490005,0.308 8.5520005,-0.405 0,0 0.511,0.516 1.319,0.801 C 9.8538165,25.082 1.4158165,23.041 6.8378165,21.245 Z m 6.4530005,-5.942 c 1.541,1.776 -0.407,3.375 -0.407,3.375 0,0 3.917,-2.027 2.12,-4.557 -1.681,-2.365 -2.973,-3.536 4.005,-7.584 0,0 -10.9530005,2.735 -5.719,8.767 z m 8.282,12.036 c 0,0 0.907,0.744 -0.995,1.323 -3.615,1.093 -15.0470005,1.421 -18.2240005,0.041 -1.14,-0.495 1,-1.187 1.672,-1.328 0.703,-0.156 1.104,-0.124 1.104,-0.124 -1.271,-0.896 -8.208,1.755 -3.525,2.515 C 14.379817,31.839 24.888817,28.834 21.571817,27.339 Z M 8.1918165,17.615 c 0,0 -5.817,1.38 -2.063,1.88 1.589,0.213 4.7510005,0.167 7.6990005,-0.083 2.405,-0.204 4.823,-0.636 4.823,-0.636 0,0 -0.849,0.364 -1.464,0.787 -5.907,1.552 -17.31700046,0.828 -14.0310005,-0.76 2.776,-1.339 5.036,-1.188 5.036,-1.188 z m 10.4320005,5.833 c 6,-3.125 3.224,-6.12 1.292,-5.713 -0.475,0.093 -0.688,0.183 -0.688,0.183 0,0 0.172,-0.277 0.511,-0.396 3.833,-1.349 6.781,3.973 -1.235,6.083 0,-0.005 0.095,-0.083 0.12,-0.156 z M 15.003817,0 c 0,0 3.324,3.323 -3.156,8.437 -5.1920005,4.104 -1.183,6.443 0,9.115 C 8.8168165,14.817 6.5928165,12.412 8.0828165,10.172 10.274817,6.875 16.342817,5.281 15.003817,0 Z M 8.7798165,31.901 c 5.7610005,0.364 14.6090005,-0.208 14.8240005,-2.932 0,0 -0.407,1.031 -4.767,1.853 -4.916,0.927 -10.9840005,0.817 -14.5830005,0.224 0,0 0.74,0.609 4.525,0.855 z"
     id="path1"
     style="fill:#5b69e4;fill-opacity:1" />
</svg>
