<?xml version="1.0" encoding="UTF-8" standalone="no"?>
<!-- Uploaded to: SVG Repo, www.svgrepo.com, Generator: SVG Repo Mixer Tools -->

<svg
   fill="#000000"
   width="556.16663"
   height="800"
   viewBox="0 0 16.684999 24"
   role="img"
   version="1.1"
   id="svg1"
   xmlns="http://www.w3.org/2000/svg"
   xmlns:svg="http://www.w3.org/2000/svg">
  <defs
     id="defs1" />
  <path
     d="M 12.195,8.981 H 7.6069999 V 0 H 12.195 c 2.476,0 4.49,2.014 4.49,4.49 0,2.476 -2.014,4.491 -4.49,4.491 z M 9.0779999,7.51 H 12.195 c 1.665,0 3.019,-1.355 3.019,-3.019 0,-1.664 -1.355,-3.019 -3.019,-3.019 H 9.0779999 Z m 0,1.471 h -4.587 C 2.0149999,8.981 9.9993515e-4,6.967 9.9993515e-4,4.491 9.9993515e-4,2.015 2.0149999,0 4.4909999,0 h 4.588 v 8.981 z m -4.587,-7.51 c -1.665,0 -3.019,1.355 -3.019,3.019 0,1.664 1.354,3.02 3.019,3.02 h 3.117 V 1.471 Z m 4.587,15.019 h -4.587 c -2.476,0 -4.48999996485,-2.014 -4.48999996485,-4.49 0,-2.476 2.01399996485,-4.49 4.48999996485,-4.49 h 4.588 v 8.98 z m -4.587,-7.509 c -1.665,0 -3.019,1.355 -3.019,3.019 0,1.664 1.355,3.019 3.019,3.019 h 3.117 V 8.981 Z M 4.5149999,24 C 2.0259999,24 -6.4849853e-8,21.986 -6.4849853e-8,19.51 -6.4849853e-8,17.034 2.0139999,15.02 4.4899999,15.02 h 4.588 v 4.441 c 0,2.503 -2.047,4.539 -4.563,4.539 z m -0.024,-7.51 a 3.023,3.023 0 0 0 -3.019,3.019 c 0,1.665 1.365,3.019 3.044,3.019 1.705,0 3.093,-1.376 3.093,-3.068 v -2.97 z m 7.7040001,0 h -0.098 c -2.4760001,0 -4.4900001,-2.014 -4.4900001,-4.49 0,-2.476 2.014,-4.49 4.4900001,-4.49 h 0.098 c 2.476,0 4.49,2.014 4.49,4.49 0,2.476 -2.014,4.49 -4.49,4.49 z M 12.098,8.981 c -1.665,0 -3.0190001,1.355 -3.0190001,3.019 0,1.664 1.3550001,3.019 3.0190001,3.019 h 0.098 c 1.665,0 3.019,-1.355 3.019,-3.019 0,-1.664 -1.355,-3.019 -3.019,-3.019 z"
     id="path1"
     style="fill:#5b69e4;fill-opacity:1" />
</svg>
