<?xml version="1.0" encoding="UTF-8" standalone="no"?>
<svg
   version="1.0"
   viewBox="0 0 128 128"
   id="svg1"
   width="128"
   height="128"
   xmlns="http://www.w3.org/2000/svg"
   xmlns:svg="http://www.w3.org/2000/svg">
  <defs
     id="defs1" />
  <path
     d="m 62.449359,31.276363 c 0,0.423799 -0.423799,0.423799 -0.423799,0.423799 h -0.423799 c -0.423799,0 -0.423799,-0.423799 -0.847598,-0.847598 0,0 -0.423798,-0.423799 -0.423798,-0.847598 0,-0.423799 0,-0.423799 0.423798,-0.423799 l 0.847598,0.423799 c 0.423799,0.423799 0.847598,0.847598 0.847598,1.271397 m -7.628381,-4.237989 c 0,-2.118995 -0.847598,-3.390392 -2.118995,-3.390392 0,0 0,0.423799 -0.423799,0.423799 v 0.847598 h 1.271397 c 0,0.847598 0.423799,1.271397 0.423799,2.118995 h 0.847598 m 14.832964,-2.118995 c 0.847598,0 1.271397,0.847598 1.695196,2.118995 h 0.847597 c -0.423799,-0.423799 -0.423799,-0.847598 -0.423799,-1.271397 0,-0.423799 0,-0.847598 -0.423798,-1.271397 -0.423799,-0.423799 -0.847598,-0.847598 -1.271397,-0.847598 0,0 -0.423799,0.423799 -0.847598,0.423799 0,0.423799 0.423799,0.423799 0.423799,0.847598 m -12.713969,6.780783 c -0.423799,0 -0.423799,0 -0.423799,-0.423799 0,-0.423799 0,-0.847598 0.423799,-1.271397 0.847598,0 1.271397,-0.423799 1.271397,-0.423799 0.423799,0 0.423799,0.423799 0.423799,0.423799 0,0.423799 -0.423799,0.847598 -1.271397,1.695196 h -0.423799 m -4.661789,-0.423799 c -1.695196,-0.847598 -2.118995,-2.118995 -2.118995,-4.237989 0,-1.271397 0,-2.118995 0.847598,-2.966593 0.423799,-0.847598 1.271397,-1.271397 2.118995,-1.271397 0.847598,0 1.271397,0.423799 2.118995,1.271397 0.423799,1.271397 0.847598,2.542794 0.847598,3.814191 v 0.847598 h 0.423799 v -0.423799 c 0.423799,0 0.423799,-0.847598 0.423799,-2.542794 0,-1.271397 0,-2.542794 -0.847598,-3.814191 -0.847598,-1.271397 -1.695196,-2.118995 -3.390392,-2.118995 -1.271397,0 -2.542794,0.847598 -2.966592,2.118995 -0.847598,1.695196 -1.017118,2.966593 -1.017118,5.085588 0,1.695196 0.593319,3.390391 2.288514,5.085587 0.423799,-0.423799 0.847598,-0.423799 1.271397,-0.847598 m 52.974866,59.755654 c 0.4238,0 0.4238,-0.16952 0.4238,-0.550939 0,-0.932358 -0.4238,-2.034235 -1.69519,-3.263252 -1.2714,-1.271397 -3.39039,-2.076615 -5.93319,-2.415654 -0.4238,-0.04238 -0.8476,-0.04238 -0.8476,-0.04238 -0.42379,-0.08476 -0.42379,-0.08476 -0.84759,-0.08476 -0.4238,-0.04238 -1.2714,-0.127139 -1.6952,-0.211899 1.2714,-3.941331 1.6952,-7.416482 1.6952,-10.467835 0,-4.237989 -0.8476,-7.204582 -2.5428,-9.747376 -1.69519,-2.542793 -3.39039,-3.81419 -5.509384,-4.237989 -0.423799,0.423799 -0.423799,0.423799 -0.423799,0.847598 2.118995,0.847598 4.237993,2.542793 5.509383,5.085587 1.2714,2.966593 1.6952,5.509387 1.6952,8.475979 0,2.373275 -0.4238,5.890806 -2.119,10.383075 -1.69519,0.678078 -3.390387,2.246134 -4.661784,4.704168 0,0.381419 0,0.593319 0.423799,0.593319 0,0 0.423799,-0.381419 0.847598,-1.101877 0.847597,-0.720459 1.271397,-1.440917 2.118997,-2.161375 1.27139,-0.720458 2.11899,-1.101877 3.39039,-1.101877 2.11899,0 4.23799,0.296659 5.50939,0.889977 1.69519,0.550939 2.54279,1.144258 2.96659,1.822336 0.4238,0.635698 0.8476,1.229017 1.2714,1.779956 0,0.550938 0.42379,0.805218 0.42379,0.805218 m -38.9895,-61.45085 c -0.423799,-0.423799 -0.423799,-1.271396 -0.423799,-2.118994 0,-1.695196 0,-2.542794 0.847598,-3.814191 0.847598,-0.847598 1.695196,-1.271397 2.542794,-1.271397 1.271397,0 2.118995,0.847598 2.966592,1.695196 0.423799,1.271397 0.847598,2.118995 0.847598,3.390392 0,2.118994 -0.847598,3.390391 -2.542793,3.81419 0,0 0.423799,0.423799 0.847598,0.423799 0.847597,0 1.271396,0.423799 2.118994,0.847598 0.423799,-2.542794 0.847598,-4.237989 0.847598,-6.356984 0,-2.542794 -0.423799,-4.23799 -1.271397,-5.509387 -1.271397,-1.271397 -2.542793,-1.695196 -4.237989,-1.695196 -1.271397,0 -2.542794,0.423799 -3.814191,1.271397 -0.847598,1.271397 -1.271397,2.118995 -1.271397,3.390392 0,2.118995 0.423799,3.814191 1.271397,5.509386 0.423799,0 0.847598,0.423799 1.271397,0.423799 m 5.085588,6.780784 c -5.509387,3.81419 -9.747377,5.509386 -13.137768,5.509386 -2.966593,0 -5.933186,-1.271397 -8.475979,-3.390391 0.423798,0.847598 0.847597,1.695195 1.271396,2.118994 l 2.542794,2.542794 c 1.695196,1.695196 3.814191,2.542794 5.933186,2.542794 2.966592,0 6.356984,-1.695196 10.594974,-4.661789 l 3.81419,-2.542793 c 0.847598,-0.847598 1.695196,-1.695196 1.695196,-2.966593 0,-0.423799 0,-0.847598 -0.423799,-0.847598 -0.423799,-0.847598 -2.542794,-2.118995 -6.780783,-3.390392 -3.814191,-1.695196 -6.780784,-2.542793 -8.475979,-2.542793 -1.271397,0 -3.390392,0.847597 -6.356985,2.542793 -2.542794,1.695196 -4.237989,3.390392 -4.237989,5.085588 0,0 0.423799,0.423799 0.847597,1.271397 2.542794,2.118994 5.085588,3.390391 7.628382,3.390391 3.390391,0 7.628381,-1.695195 13.137768,-5.933185 v 0.847598 c 0.423799,0 0.423799,0.423799 0.423799,0.423799 m 9.747376,85.607389 c 1.695195,3.18697 4.661788,4.78893 8.05218,4.78893 0.847598,0 1.695196,-0.12714 2.542796,-0.38142 0.8476,-0.16952 1.69519,-0.46618 2.11899,-0.80522 0.4238,-0.29666 0.8476,-0.59332 1.2714,-0.93236 0.8476,-0.29666 0.8476,-0.50855 1.2714,-0.72045 l 7.20458,-6.22985 c 1.69519,-1.35192 3.39039,-2.53432 5.50938,-3.55991 1.6952,-1.01712 3.3904,-1.6952 4.23799,-2.07661 1.2714,-0.33904 2.119,-0.8476 2.9666,-1.52568 0.4238,-0.6357 0.8476,-1.44092 0.8476,-2.45804 0,-1.22901 -0.8476,-2.16137 -1.6952,-2.83945 -0.8476,-0.67808 -1.6952,-1.14426 -2.54279,-1.44091 -0.8476,-0.29666 -1.6952,-0.97474 -2.9666,-2.119 -0.8476,-1.10188 -1.69519,-2.627553 -2.11899,-4.619408 l -0.4238,-2.458034 c -0.4238,-1.144257 -0.4238,-1.991855 -0.8476,-2.458034 0,-0.12714 0,-0.16952 -0.4238,-0.16952 -0.4238,0 -1.2714,0.381419 -1.69519,1.101878 -0.8476,0.720458 -1.6952,1.525676 -2.5428,2.373274 -0.4238,0.847598 -1.69519,1.610436 -2.54279,2.330894 -1.2714,0.720458 -2.5428,1.101877 -3.39039,1.101877 -3.39039,0 -5.08559,-0.932357 -6.356987,-2.754693 -0.847598,-1.356156 -1.271397,-2.924213 -1.695196,-4.704168 -0.847598,-0.720458 -1.271397,-1.101878 -2.118995,-1.101878 -2.118995,0 -2.966593,2.203755 -2.966593,6.653644 v 13.180148 c 0,0.38142 -0.423799,1.22902 -0.423799,2.54279 -0.423798,1.31378 -0.423798,2.80555 -0.423798,4.49227 l -0.847598,4.70417 v 0.0721 m -61.45085,-2.2419 c 3.941331,0.57637 8.47598,1.80962 13.603947,3.69129 5.127967,1.86471 8.26408,2.83945 9.408337,2.83945 2.966593,0 5.424627,-1.31377 7.458862,-3.85233 0.423799,-0.82217 0.423799,-1.78843 0.423799,-2.89879 0,-4.0049 -2.415655,-9.06929 -7.246963,-15.21438 L 40.411813,100.4234 C 39.818495,99.618184 39.098037,98.389167 38.165679,96.736351 37.275701,95.083535 36.470483,93.812138 35.834785,92.92216 35.283846,91.947422 34.393868,90.972685 33.249611,89.997947 32.147734,89.02321 30.876337,88.387511 29.4778,88.048472 c -1.779955,0.339039 -3.008972,0.932358 -3.602291,1.737576 -0.593318,0.805218 -0.932358,1.695196 -1.017117,2.627553 -0.12714,0.889978 -0.38142,1.483297 -0.805218,1.779956 -0.423799,0.254279 -1.144258,0.466179 -2.118995,0.678078 -0.2119,0 -0.593319,0 -1.144257,0.04238 h -1.144258 c -2.246134,0 -3.77181,0.25428 -4.577028,0.678079 -1.059498,1.229016 -1.610437,2.627553 -1.610437,4.110849 0,0.678077 0.16952,1.822337 0.508559,3.432767 0.339039,1.56806 0.508559,2.83946 0.508559,3.72944 0,1.73757 -0.508559,3.47515 -1.568056,5.21272 -1.059498,1.82234 -1.610436,3.1785 -1.610436,4.14476 0.423799,1.64434 3.220872,2.80131 8.348839,3.47939 M 33.75817,81.178691 c 0,-2.924213 0.762838,-6.145085 2.330894,-9.959276 1.525676,-3.81419 3.051353,-6.356984 4.534649,-8.05218 -0.08476,-0.423799 -0.296659,-0.423799 -0.635699,-0.423799 l -0.423799,-0.423799 c -1.229017,1.271397 -2.712313,4.23799 -4.492269,8.475979 -1.779955,3.814191 -2.712313,7.331722 -2.712313,9.916896 0,1.907095 0.466179,3.559911 1.313777,5.000828 0.932358,1.398536 3.178492,3.432771 6.738403,6.017945 l 4.492269,2.924213 c 4.788929,4.15323 7.331722,7.035062 7.331722,8.730262 0,0.88997 -0.423799,1.77995 -1.695195,2.75469 -0.847598,1.01712 -1.991856,1.52568 -2.966593,1.52568 -0.08476,0 -0.12714,0.0848 -0.12714,0.29666 0,0.0424 0.423799,0.88997 1.313777,2.54279 1.779956,2.41565 5.594146,3.60229 10.679734,3.60229 9.323577,0 16.528159,-3.81419 22.037546,-11.44257 0,-2.119 0,-3.432773 -0.423799,-3.983712 v -1.568056 c 0,-2.754693 0.423799,-4.831308 1.271397,-6.187465 0.847597,-1.356157 1.695195,-1.991855 2.966592,-1.991855 0.847598,0 1.695196,0.296659 2.542794,0.932358 0.423799,-3.263252 0.423799,-6.102705 0.423799,-8.645499 0,-3.856571 0,-7.035063 -0.847598,-10.001656 -0.423799,-2.542793 -1.271397,-4.661788 -2.118995,-6.356984 L 82.74933,61.04824 c -0.847598,-1.271397 -1.271397,-2.542794 -2.118995,-3.81419 -0.423799,-1.695196 -0.847598,-2.966593 -0.847598,-5.085588 -1.271397,-2.118995 -2.118995,-4.23799 -3.390392,-6.356984 -0.847598,-2.118995 -1.695196,-4.23799 -2.542794,-5.933186 l -3.81419,2.966593 c -4.23799,2.966593 -7.628382,4.23799 -10.594974,4.23799 -2.542794,0 -4.661789,-0.423799 -5.933186,-2.118995 l -2.542793,-2.118995 c 0,1.271397 -0.423799,2.966593 -1.271397,4.661789 l -2.669934,5.085587 c -1.186637,2.966593 -1.822335,4.661789 -1.949475,5.933185 -0.16952,0.847598 -0.296659,1.695196 -0.381419,1.695196 l -3.178492,6.356985 c -3.432772,6.356984 -5.170348,12.24779 -5.170348,17.121478 0,0.974737 0.08476,1.991855 0.25428,3.008972 -1.907096,-1.313776 -2.839453,-3.136112 -2.839453,-5.509386 m 30.344005,40.091379 c -5.509386,0 -9.747376,0.74589 -12.713969,2.22495 v -0.12714 c -2.118994,2.54279 -4.492269,3.85657 -7.7979,3.85657 -2.076615,0 -5.339867,-0.80522 -9.747376,-2.41566 -4.44989,-1.52567 -8.39122,-2.69536 -11.823991,-3.46667 -0.33904,-0.0975 -1.101878,-0.24157 -2.330895,-0.43651 -1.186637,-0.19071 -2.288514,-0.38566 -3.263252,-0.58061 -0.889978,-0.19071 -1.907095,-0.47889 -3.008972,-0.86879 -1.059498,-0.3348 -1.907096,-0.77131 -2.542794,-1.30106 C 10.288183,117.62116 10,117.01937 10,116.34553 c 0,-0.67808 0.144092,-1.40278 0.432275,-2.17409 0.271231,-0.46618 0.567891,-0.93236 0.86455,-1.35616 0.296659,-0.46618 0.550938,-0.88997 0.720458,-1.31377 0.254279,-0.38142 0.423799,-0.76284 0.593319,-1.18664 0.169519,-0.38142 0.339039,-0.76284 0.423799,-1.22902 0.08476,-0.4238 0.169519,-0.8476 0.169519,-1.27139 0,-0.4238 -0.169519,-1.6952 -0.508559,-3.94133 -0.339039,-2.20376 -0.508558,-3.6023 -0.508558,-4.195615 0,-1.864715 0.423799,-3.348011 1.356156,-4.407509 0.932358,-1.059497 1.822336,-1.610436 2.754694,-1.610436 h 4.873688 c 0.381419,0 0.974737,-0.211899 1.864715,-0.720458 0.296659,-0.678078 0.550939,-1.229017 0.720458,-1.737576 0.2119,-0.508558 0.29666,-0.889978 0.381419,-1.059497 0.08476,-0.25428 0.16952,-0.508559 0.25428,-0.720458 0.169519,-0.29666 0.381419,-0.635699 0.678078,-0.974738 -0.339039,-0.423799 -0.508559,-0.974738 -0.508559,-1.652816 0,-0.466179 0,-0.889978 0.08476,-1.144257 0,-1.525676 0.720458,-3.687051 2.246135,-6.526504 l 1.483296,-2.669934 c 1.229017,-2.288514 2.161375,-3.98371 2.839453,-5.678906 0.720458,-1.695195 1.483296,-4.237989 2.330894,-7.628381 0.678079,-2.966593 2.288515,-5.933185 4.831308,-8.899778 l 3.178493,-3.814191 c 2.203754,-2.542793 3.644671,-4.661788 4.449889,-6.356984 0.805218,-1.695196 1.229017,-3.814191 1.229017,-5.509387 0,-0.847598 -0.2119,-3.390391 -0.678079,-7.628381 -0.423799,-4.237989 -0.635698,-8.475979 -0.635698,-12.29017 0,-2.966592 0.254279,-5.085587 0.805218,-7.204582 C 47.277357,9.3235771 48.252094,7.2045823 49.693011,5.5093865 50.964408,3.8141906 52.659603,2.1189948 55.202397,1.2713969 57.745191,0.42379896 60.711784,0 64.102175,0 c 1.271397,0 2.542794,0 3.814191,0.42379896 1.271397,0 2.966593,0.42379896 5.085587,1.27139684 1.695196,0.847598 3.390392,1.6951959 4.661789,2.9665928 1.695196,1.2713968 2.966593,3.3903916 4.23799,5.5093864 0.847598,2.542794 1.695195,5.085588 2.118994,8.475979 0.423799,2.118995 0.423799,4.23799 0.847598,7.204583 0,2.542793 0.423799,4.237989 0.423799,5.509386 0.423799,1.271397 0.423799,2.966593 0.847598,5.085588 0.423799,1.695195 0.847598,3.390391 1.695196,4.661788 0.847598,1.695196 1.695196,3.390392 2.966593,5.085588 1.2714,2.118994 2.96659,4.237989 4.66179,6.780783 3.81419,4.23799 6.78078,8.899778 8.47598,13.561567 2.11899,4.237989 3.39039,9.747376 3.39039,15.638181 0,2.924213 -0.4238,5.763666 -1.2714,8.51836 0.8476,0 1.2714,0.339039 1.6952,0.932357 0.4238,0.593319 0.8476,1.864716 1.27139,3.856571 l 0.4238,3.136112 c 0.4238,0.932358 0.8476,1.822332 2.119,2.585172 0.8476,0.76284 1.69519,1.39854 2.96659,1.9071 0.8476,0.4238 2.119,1.01711 2.96659,1.77995 0.8476,0.8476 1.2714,1.73758 1.2714,2.66994 0,1.44091 -0.4238,2.50041 -1.2714,3.26325 -0.84759,0.8476 -1.69519,1.44091 -2.96659,1.82233 -0.8476,0.4238 -2.54279,1.2714 -5.08559,2.46651 -2.11899,1.25445 -4.23799,2.77589 -6.35698,4.57703 l -4.23799,3.60653 c -1.6952,1.65282 -3.39039,2.83945 -4.66179,3.55991 C 92.92051,127.61858 91.22531,128 89.530113,128 l -2.966593,-0.33904 c -3.390392,-0.88998 -5.509386,-2.58517 -6.780783,-5.17035 -6.780784,-0.82217 -12.29017,-1.22901 -15.680562,-1.22901"
     id="path1"
     style="fill:#5b69e4;fill-opacity:1;stroke-width:0.423799" />
</svg>
