<?xml version="1.0" encoding="UTF-8" standalone="no"?>
<svg
   height="32"
   viewBox="0 0 32 32"
   width="32"
   version="1.1"
   id="svg5"
   xmlns="http://www.w3.org/2000/svg"
   xmlns:svg="http://www.w3.org/2000/svg">
  <defs
     id="defs5" />
  <path
     d="m 23.4882,9.14 v 2.9663 a 4.2843,4.2843 0 0 1 -4.173,4.2352 h -6.6721 a 3.4077,3.4077 0 0 0 -3.34,3.3945 v 6.3607 c 0,1.81 1.5742,2.8751 3.34,3.3945 a 11.1762,11.1762 0 0 0 6.6721,0 c 1.6817,-0.4869 3.34,-1.4668 3.34,-3.3945 V 23.55 H 15.983 v -0.8486 h 10.0121 c 1.9414,0 2.6648,-1.3542 3.34,-3.3867 a 11.4642,11.4642 0 0 0 0,-6.7889 c -0.48,-1.9327 -1.3961,-3.3867 -3.34,-3.3867 z m -3.7526,16.1076 a 1.2731,1.2731 0 1 1 -1.2534,1.269 1.2607,1.2607 0 0 1 1.2534,-1.269 z"
     id="path1"
     style="fill:#5b69e4;fill-opacity:1" />
  <path
     d="m 19.7356,25.2476 a 1.2731,1.2731 0 1 1 -1.2534,1.269 1.2607,1.2607 0 0 1 1.2534,-1.269 z"
     fill="none"
     id="path2" />
  <path
     d="m 15.8351,2 a 19.0717,19.0717 0 0 0 -3.192,0.2725 c -2.8268,0.4994 -3.34,1.5447 -3.34,3.4723 v 2.5461 h 6.68 V 9.14 H 6.7962 a 4.1708,4.1708 0 0 0 -4.173,3.3867 12.4855,12.4855 0 0 0 0,6.7889 c 0.4748,1.9776 1.6088,3.3867 3.55,3.3867 H 8.47 V 19.65 a 4.2449,4.2449 0 0 1 4.173,-4.15 h 6.6721 a 3.3654,3.3654 0 0 0 3.34,-3.3944 V 5.745 A 3.729,3.729 0 0 0 19.3151,2.2727 20.8377,20.8377 0 0 0 15.8351,2 Z m -3.6125,2.0478 a 1.2731,1.2731 0 1 1 -1.2534,1.2768 1.2675,1.2675 0 0 1 1.2534,-1.2768 z"
     id="path3"
     style="fill:#5b69e4;fill-opacity:1" />
  <g
     fill="none"
     id="g5">
    <path
       d="M 12.2226,4.0478 A 1.2731,1.2731 0 1 1 10.9692,5.3246 1.2675,1.2675 0 0 1 12.2226,4.0478 Z"
       id="path4" />
    <path
       d="M 0,0 H 32 V 32 H 0 Z"
       id="path5" />
  </g>
</svg>
